<?xml version="1.0" encoding="UTF-8"?>
<svg id="Layer_2" data-name="Layer 2" xmlns="http://www.w3.org/2000/svg" viewBox="0 0 135 149.11">
  <defs>
    <style>
      .cls-1 {
        fill: #00d4aa;
      }
    </style>
  </defs>
  <g id="Layer_1-2" data-name="Layer 1">
    <g>
      <path class="cls-1" d="M58.96,121.65l18.78-1.06-10.41,28.52-12.06-6.14-38.72-19.52L0,114.98l23.4-50.33-1.17-8.61c-.21-1.51.89-3.22,1.53-4.67L40.56,13.36c2.04-4.61,3.78-8.95,6.32-13.36l12.6,42.64,34.6,18.02,6.74,15.64,16.33,8.51,17.84,9.42c-12.64,17.4-5.22,12-24.3,22.54-10.8-.04-20.99-.82-31.62-.24-3.4.18-16.09,3.71-20.12,5.12ZM53.61,46.3l-4.97-19.23c-.79-3.56-1.62-6.94-2.69-10.42l-9.97,29.01,3.27,14.92,14.36-14.28ZM89.94,78.29l-7.81-8.53-11.93,3.36c9.78,5.41,8.19,4.92,19.74,5.18Z"/>
      <polygon class="cls-1" points="81.07 49.58 63.04 40.25 83.01 8.58 82.23 25.39 81.07 49.58"/>
    </g>
  </g>
</svg>