<?xml version="1.0" encoding="UTF-8"?>
<svg id="Layer_2" xmlns="http://www.w3.org/2000/svg" version="1.1" viewBox="0 0 198.1 225.7">
  <!-- Generator: Adobe Illustrator 30.2.1, SVG Export Plug-In . SVG Version: 2.1.1 Build 1)  -->
  <defs>
    <style>
      .st0, .st1 {
        isolation: isolate;
      }

      .st2 {
        fill: #00d4aa;
      }

      .st1 {
        fill: #fff;
        font-family: Powerr-Medium, Powerr;
        font-size: 93.6px;
        font-weight: 500;
      }
    </style>
  </defs>
  <g id="Layer_1-2">
    <g>
      <g class="st0">
        <text class="st1" transform="translate(0 209.8)"><tspan x="0" y="0">c</tspan></text>
        <text class="st1" transform="translate(38.4 209.8)"><tspan x="0" y="0">ody</tspan></text>
      </g>
      <g>
        <path class="st2" d="M90.5,121.7l18.8-1.1-10.4,28.5-12.1-6.1-38.7-19.5-16.6-8.5,23.4-50.3-1.2-8.6c-.2-1.5.9-3.2,1.5-4.7l16.8-38c2-4.6,3.8-8.9,6.3-13.4l12.6,42.6,34.6,18,6.7,15.6,16.3,8.5,17.8,9.4c-12.6,17.4-5.2,12-24.3,22.5-10.8,0-21-.8-31.6-.2-3.4.2-16.1,3.7-20.1,5.1h0ZM85.1,46.3l-5-19.2c-.8-3.6-1.6-6.9-2.7-10.4l-10,29,3.3,14.9s14.4-14.3,14.4-14.3ZM121.5,78.3l-7.8-8.5-11.9,3.4c9.8,5.4,8.2,4.9,19.7,5.2h0Z"/>
        <polygon class="st2" points="112.6 49.6 94.6 40.3 114.5 8.6 113.8 25.4 112.6 49.6"/>
      </g>
    </g>
  </g>
</svg>